<svg width="31" height="36" viewBox="0 0 31 36" fill="none" xmlns="http://www.w3.org/2000/svg">
<path d="M9.1428 0.45459C10.3339 0.45459 11.2962 1.44736 11.2962 2.67618V4.89777H19.9098V2.67618C19.9098 1.44736 20.8721 0.45459 22.0632 0.45459C23.2543 0.45459 24.2166 1.44736 24.2166 2.67618V4.89777H27.4468C29.23 4.89777 30.6769 6.3904 30.6769 8.23016V11.5625H0.529175V8.23016C0.529175 6.3904 1.97599 4.89777 3.75928 4.89777H6.98939V2.67618C6.98939 1.44736 7.9517 0.45459 9.1428 0.45459ZM0.529175 13.7841H30.6769V32.6677C30.6769 34.5074 29.23 36 27.4468 36H3.75928C1.97599 36 0.529175 34.5074 0.529175 32.6677V13.7841ZM4.83599 19.3381V21.5597C4.83599 22.1706 5.3205 22.6705 5.91269 22.6705H8.0661C8.65828 22.6705 9.1428 22.1706 9.1428 21.5597V19.3381C9.1428 18.7272 8.65828 18.2273 8.0661 18.2273H5.91269C5.3205 18.2273 4.83599 18.7272 4.83599 19.3381ZM13.4496 19.3381V21.5597C13.4496 22.1706 13.9341 22.6705 14.5263 22.6705H16.6797C17.2719 22.6705 17.7564 22.1706 17.7564 21.5597V19.3381C17.7564 18.7272 17.2719 18.2273 16.6797 18.2273H14.5263C13.9341 18.2273 13.4496 18.7272 13.4496 19.3381ZM23.1399 18.2273C22.5478 18.2273 22.0632 18.7272 22.0632 19.3381V21.5597C22.0632 22.1706 22.5478 22.6705 23.1399 22.6705H25.2933C25.8855 22.6705 26.3701 22.1706 26.3701 21.5597V19.3381C26.3701 18.7272 25.8855 18.2273 25.2933 18.2273H23.1399ZM4.83599 28.2245V30.4461C4.83599 31.057 5.3205 31.5569 5.91269 31.5569H8.0661C8.65828 31.5569 9.1428 31.057 9.1428 30.4461V28.2245C9.1428 27.6135 8.65828 27.1137 8.0661 27.1137H5.91269C5.3205 27.1137 4.83599 27.6135 4.83599 28.2245ZM14.5263 27.1137C13.9341 27.1137 13.4496 27.6135 13.4496 28.2245V30.4461C13.4496 31.057 13.9341 31.5569 14.5263 31.5569H16.6797C17.2719 31.5569 17.7564 31.057 17.7564 30.4461V28.2245C17.7564 27.6135 17.2719 27.1137 16.6797 27.1137H14.5263ZM22.0632 28.2245V30.4461C22.0632 31.057 22.5478 31.5569 23.1399 31.5569H25.2933C25.8855 31.5569 26.3701 31.057 26.3701 30.4461V28.2245C26.3701 27.6135 25.8855 27.1137 25.2933 27.1137H23.1399C22.5478 27.1137 22.0632 27.6135 22.0632 28.2245Z" fill="#E7DFC6"/>
</svg>
