<svg width="40" height="40" viewBox="0 0 40 40" fill="none" xmlns="http://www.w3.org/2000/svg">
<path d="M20 40C25.3043 40 30.3914 37.8929 34.1421 34.1421C37.8929 30.3914 40 25.3043 40 20C40 14.6957 37.8929 9.60859 34.1421 5.85786C30.3914 2.10714 25.3043 0 20 0C14.6957 0 9.60859 2.10714 5.85786 5.85786C2.10714 9.60859 0 14.6957 0 20C0 25.3043 2.10714 30.3914 5.85786 34.1421C9.60859 37.8929 14.6957 40 20 40ZM20 22.5C21.3261 22.5 22.5979 23.0268 23.5355 23.9645C24.4732 24.9021 25 26.1739 25 27.5C25 28.8261 24.4732 30.0979 23.5355 31.0355C22.5979 31.9732 21.3261 32.5 20 32.5C18.6739 32.5 17.4021 31.9732 16.4645 31.0355C15.5268 30.0979 15 28.8261 15 27.5C15 26.1739 15.5268 24.9021 16.4645 23.9645C17.4021 23.0268 18.6739 22.5 20 22.5ZM7.86719 10.3672C8.35156 9.88281 9.14844 9.88281 9.63281 10.3672L12.5 13.2344L15.3672 10.3672C15.8516 9.88281 16.6484 9.88281 17.1328 10.3672C17.6172 10.8516 17.6172 11.6484 17.1328 12.1328L14.2656 15L17.1328 17.8672C17.6172 18.3516 17.6172 19.1484 17.1328 19.6328C16.6484 20.1172 15.8516 20.1172 15.3672 19.6328L12.5 16.7656L9.63281 19.6328C9.14844 20.1172 8.35156 20.1172 7.86719 19.6328C7.38281 19.1484 7.38281 18.3516 7.86719 17.8672L10.7344 15L7.86719 12.1328C7.38281 11.6484 7.38281 10.8516 7.86719 10.3672ZM22.8672 10.3672C23.3516 9.88281 24.1484 9.88281 24.6328 10.3672L27.5 13.2344L30.3672 10.3672C30.8516 9.88281 31.6484 9.88281 32.1328 10.3672C32.6172 10.8516 32.6172 11.6484 32.1328 12.1328L29.2656 15L32.1328 17.8672C32.6172 18.3516 32.6172 19.1484 32.1328 19.6328C31.6484 20.1172 30.8516 20.1172 30.3672 19.6328L27.5 16.7656L24.6328 19.6328C24.1484 20.1172 23.3516 20.1172 22.8672 19.6328C22.3828 19.1484 22.3828 18.3516 22.8672 17.8672L25.7344 15L22.8672 12.1328C22.3828 11.6484 22.3828 10.8516 22.8672 10.3672Z" fill="#93B1A6"/>
</svg>
