<!DOCTYPE svg PUBLIC "-//W3C//DTD SVG 1.1//EN" "http://www.w3.org/Graphics/SVG/1.1/DTD/svg11.dtd">
<!-- Uploaded to: SVG Repo, www.svgrepo.com, Transformed by: SVG Repo Mixer Tools -->
<svg fill="#93b1a6" height="800px" width="800px" version="1.1" id="Capa_1" xmlns="http://www.w3.org/2000/svg" xmlns:xlink="http://www.w3.org/1999/xlink" viewBox="0 0 44 44" xml:space="preserve">
<g id="SVGRepo_bgCarrier" stroke-width="0"/>
<g id="SVGRepo_tracerCarrier" stroke-linecap="round" stroke-linejoin="round"/>
<g id="SVGRepo_iconCarrier"> <path d="M22,0C9.869,0,0,9.869,0,22s9.869,22,22,22s22-9.869,22-22S34.131,0,22,0z M30,11c1.933,0,3.5,1.567,3.5,3.5 S31.933,18,30,18s-3.5-1.567-3.5-3.5S28.067,11,30,11z M14,11c1.933,0,3.5,1.567,3.5,3.5S15.933,18,14,18s-3.5-1.567-3.5-3.5 S12.067,11,14,11z M34.707,31.707c-0.391,0.391-1.023,0.391-1.414,0c-2.721-2.721-7.865-2.721-10.586,0 c-1.463,1.463-3.347,2.181-5.325,2.181c-2.421,0-4.984-1.077-7.089-3.181c-0.391-0.391-0.391-1.023,0-1.414s1.023-0.391,1.414,0 c1.43,1.43,3.177,2.339,4.919,2.56c1.261,0.163,3.089,0.019,4.667-1.56c3.51-3.511,9.904-3.511,13.414,0 C35.098,30.684,35.098,31.316,34.707,31.707z"/> </g>
</svg>