<svg width="40" height="40" viewBox="0 0 40 40" fill="none" xmlns="http://www.w3.org/2000/svg">
<path d="M18.4609 2.625L17.7266 3.88393C16.0625 6.74107 13.0859 8.21429 10.125 7.64286L5.46877 6.75893C2.60158 6.21429 -0.007795 8.74107 1.74985e-05 12.0625C1.74985e-05 13.4821 0.500017 14.8482 1.37502 15.8571L3.65627 18.4643C4.51564 19.4464 5.00002 20.7768 5.00002 22.1696C5.00002 23.5804 4.50002 24.9286 3.6172 25.9196L2.59377 27.0625C1.72658 28.0268 1.2422 29.3482 1.2422 30.7321C1.2422 34.0179 3.90627 36.4643 6.71876 35.75L11.5859 34.5179C12.1875 34.3661 12.8125 34.2857 13.4297 34.2857H14.2109C16.3359 34.2857 18.4063 35.1161 20.0703 36.6339L22.4766 38.8393C23.2969 39.5893 24.3203 40 25.3672 40C27.9219 40 30 37.6339 30 34.7054V32.4554C30 29.3393 31.6719 26.5446 34.2109 25.4196L37.0938 24.1429C38.8438 23.3661 40 21.4375 40 19.2946C40 16.7857 38.4297 14.625 36.2656 14.1786L34.0781 13.7232C31.2266 13.125 28.9688 10.6429 28.3281 7.41071L27.7734 4.59821C27.25 1.91071 25.1563 0 22.75 0C21.0313 0 19.4219 0.982143 18.4609 2.625ZM12.4922 14.2857C13.1552 14.2857 13.7911 14.5867 14.26 15.1226C14.7288 15.6584 14.9922 16.3851 14.9922 17.1429C14.9922 17.9006 14.7288 18.6273 14.26 19.1632C13.7911 19.699 13.1552 20 12.4922 20C11.8292 20 11.1933 19.699 10.7244 19.1632C10.2556 18.6273 9.9922 17.9006 9.9922 17.1429C9.9922 16.3851 10.2556 15.6584 10.7244 15.1226C11.1933 14.5867 11.8292 14.2857 12.4922 14.2857ZM22.4922 15.7143C22.4922 15.3354 22.6239 14.972 22.8583 14.7041C23.0927 14.4362 23.4107 14.2857 23.7422 14.2857C24.0737 14.2857 24.3917 14.4362 24.6261 14.7041C24.8605 14.972 24.9922 15.3354 24.9922 15.7143C24.9922 16.0932 24.8605 16.4565 24.6261 16.7244C24.3917 16.9923 24.0737 17.1429 23.7422 17.1429C23.4107 17.1429 23.0927 16.9923 22.8583 16.7244C22.6239 16.4565 22.4922 16.0932 22.4922 15.7143ZM22.4922 22.8571C23.1552 22.8571 23.7911 23.1582 24.26 23.694C24.7288 24.2298 24.9922 24.9565 24.9922 25.7143C24.9922 26.472 24.7288 27.1988 24.26 27.7346C23.7911 28.2704 23.1552 28.5714 22.4922 28.5714C21.8292 28.5714 21.1933 28.2704 20.7244 27.7346C20.2556 27.1988 19.9922 26.472 19.9922 25.7143C19.9922 24.9565 20.2556 24.2298 20.7244 23.694C21.1933 23.1582 21.8292 22.8571 22.4922 22.8571Z" fill="#93B1A6"/>
</svg>
