<svg width="40" height="40" viewBox="0 0 40 40" fill="none" xmlns="http://www.w3.org/2000/svg">
<path d="M0 20C0 14.6957 2.10714 9.60859 5.85786 5.85786C9.60859 2.10714 14.6957 0 20 0C25.3043 0 30.3914 2.10714 34.1421 5.85786C37.8929 9.60859 40 14.6957 40 20C40 25.3043 37.8929 30.3914 34.1421 34.1421C30.3914 37.8929 25.3043 40 20 40C14.6957 40 9.60859 37.8929 5.85786 34.1421C2.10714 30.3914 0 25.3043 0 20ZM26.4609 30.9297C26.9766 30.4687 27.0156 29.6797 26.5547 29.1641C25.2969 27.7656 23.1016 26.25 20 26.25C16.8984 26.25 14.7031 27.7656 13.4453 29.1641C12.9844 29.6797 13.0234 30.4687 13.5391 30.9297C14.0547 31.3906 14.8437 31.3516 15.3047 30.8359C16.2188 29.8203 17.7734 28.75 20 28.75C22.2266 28.75 23.7812 29.8203 24.6953 30.8359C25.1562 31.3516 25.9453 31.3906 26.4609 30.9297ZM13.7812 21.25C15.1641 21.25 16.2812 20.1328 16.2812 18.75C16.2812 18.6328 16.2734 18.5156 16.2578 18.4062L17.1094 18.6875C17.7656 18.9062 18.4688 18.5547 18.6875 17.8984C18.9062 17.2422 18.5547 16.5391 17.8984 16.3203L10.3984 13.8203C9.74219 13.6016 9.03906 13.9531 8.82031 14.6094C8.60156 15.2656 8.95312 15.9687 9.60938 16.1875L12.0078 16.9844C11.5547 17.4375 11.2812 18.0625 11.2812 18.75C11.2812 20.1328 12.3984 21.25 13.7812 21.25ZM28.7812 18.75C28.7812 18.0547 28.5 17.4219 28.0391 16.9688L30.3984 16.1797C31.0547 15.9609 31.4063 15.25 31.1875 14.6016C30.9688 13.9531 30.2578 13.5938 29.6094 13.8125L22.1094 16.3125C21.4531 16.5312 21.1016 17.2422 21.3203 17.8906C21.5391 18.5391 22.25 18.8984 22.8984 18.6797L23.8125 18.375C23.7969 18.4922 23.7891 18.6172 23.7891 18.7422C23.7891 20.125 24.9062 21.2422 26.2891 21.2422C27.6719 21.2422 28.7891 20.125 28.7891 18.7422L28.7812 18.75Z" fill="#93B1A6"/>
</svg>
