<svg width="40" height="40" viewBox="0 0 40 40" fill="none" xmlns="http://www.w3.org/2000/svg">
<path d="M20 40C25.3043 40 30.3914 37.8929 34.1421 34.1421C37.8929 30.3914 40 25.3043 40 20C40 14.6957 37.8929 9.60859 34.1421 5.85786C30.3914 2.10714 25.3043 0 20 0C14.6957 0 9.60859 2.10714 5.85786 5.85786C2.10714 9.60859 0 14.6957 0 20C0 25.3043 2.10714 30.3914 5.85786 34.1421C9.60859 37.8929 14.6957 40 20 40ZM27.5 31.25H26.875V28.125H31.1953C30.8984 29.8984 29.3516 31.25 27.5 31.25ZM31.1953 26.875H26.875V23.75H27.5C29.3594 23.75 30.8984 25.1016 31.1953 26.875ZM25.625 26.875H20.625V23.75H25.625V26.875ZM25.625 31.25H20.625V28.125H25.625V31.25ZM19.375 23.75V26.875H14.375V23.75H19.375ZM19.375 28.125V31.25H14.375V28.125H19.375ZM13.125 26.875H8.80469C9.10156 25.1016 10.6484 23.75 12.5 23.75H13.125V26.875ZM13.125 31.25H12.5C10.6406 31.25 9.10156 29.8984 8.80469 28.125H13.125V31.25ZM11.2812 16.25C11.2812 15.587 11.5446 14.9511 12.0135 14.4822C12.4823 14.0134 13.1182 13.75 13.7812 13.75C14.4443 13.75 15.0802 14.0134 15.549 14.4822C16.0179 14.9511 16.2812 15.587 16.2812 16.25C16.2812 16.913 16.0179 17.5489 15.549 18.0178C15.0802 18.4866 14.4443 18.75 13.7812 18.75C13.1182 18.75 12.4823 18.4866 12.0135 18.0178C11.5446 17.5489 11.2812 16.913 11.2812 16.25ZM26.2812 13.75C26.9443 13.75 27.5802 14.0134 28.049 14.4822C28.5179 14.9511 28.7812 15.587 28.7812 16.25C28.7812 16.913 28.5179 17.5489 28.049 18.0178C27.5802 18.4866 26.9443 18.75 26.2812 18.75C25.6182 18.75 24.9823 18.4866 24.5135 18.0178C24.0446 17.5489 23.7812 16.913 23.7812 16.25C23.7812 15.587 24.0446 14.9511 24.5135 14.4822C24.9823 14.0134 25.6182 13.75 26.2812 13.75Z" fill="#93B1A6"/>
</svg>
