<svg width="40" height="40" viewBox="0 0 40 40" fill="none" xmlns="http://www.w3.org/2000/svg">
<path d="M0 20C0 25.3043 2.10714 30.3914 5.85786 34.1421C9.60859 37.8929 14.6957 40 20 40C25.3043 40 30.3914 37.8929 34.1421 34.1421C37.8929 30.3914 40 25.3043 40 20C40 14.6957 37.8929 9.60859 34.1421 5.85786C30.3914 2.10714 25.3043 0 20 0C14.6957 0 9.60859 2.10714 5.85786 5.85786C2.10714 9.60859 0 14.6957 0 20ZM18.75 26.25C18.75 25.5625 19.3125 25 20 25C23.5156 25 26.6875 26.6016 29.0391 29.1484C29.5078 29.6562 29.4766 30.4453 28.9688 30.9141C28.4609 31.3828 27.6719 31.3516 27.2031 30.8438C25.25 28.7266 22.7188 27.4922 19.9922 27.4922C19.3047 27.4922 18.7422 26.9297 18.7422 26.2422L18.75 26.25ZM12.5 32.5C10.4297 32.5 8.75 30.8594 8.75 28.8281C8.75 27.2656 10.9844 24.1094 12 22.7578C12.25 22.4141 12.75 22.4141 13 22.7578C14.0312 24.1094 16.25 27.2656 16.25 28.8281C16.25 30.8594 14.5703 32.5 12.5 32.5ZM28.7188 16.25C28.7188 16.913 28.4554 17.5489 27.9865 18.0178C27.5177 18.4866 26.8818 18.75 26.2188 18.75C25.5557 18.75 24.9198 18.4866 24.451 18.0178C23.9821 17.5489 23.7188 16.913 23.7188 16.25C23.7188 15.587 23.9821 14.9511 24.451 14.4822C24.9198 14.0134 25.5557 13.75 26.2188 13.75C26.8818 13.75 27.5177 14.0134 27.9865 14.4822C28.4554 14.9511 28.7188 15.587 28.7188 16.25ZM13.7188 13.75C14.3818 13.75 15.0177 14.0134 15.4865 14.4822C15.9554 14.9511 16.2188 15.587 16.2188 16.25C16.2188 16.913 15.9554 17.5489 15.4865 18.0178C15.0177 18.4866 14.3818 18.75 13.7188 18.75C13.0557 18.75 12.4198 18.4866 11.951 18.0178C11.4821 17.5489 11.2188 16.913 11.2188 16.25C11.2188 15.587 11.4821 14.9511 11.951 14.4822C12.4198 14.0134 13.0557 13.75 13.7188 13.75Z" fill="#93B1A6"/>
</svg>
